<svg width="322" height="193" viewBox="0 0 322 193" fill="none" xmlns="http://www.w3.org/2000/svg">
<g filter="url(#filter0_i_345_2338)">
<path fill-rule="evenodd" clip-rule="evenodd" d="M157.796 121.035C191.219 121.035 218.314 93.9407 218.314 60.5177C218.314 27.0947 191.219 0 157.796 0C124.373 0 97.2783 27.0947 97.2783 60.5177C97.2783 93.9407 124.373 121.035 157.796 121.035ZM178.114 31.5746C180.014 31.5746 181.554 33.1147 181.554 35.0146V89.1523C181.554 90.6481 180.342 91.8607 178.846 91.8607C177.35 91.8607 176.138 90.6481 176.138 89.1523V65.1698L176.934 55.613C176.959 55.3185 176.726 55.066 176.431 55.066C176.249 55.066 176.082 55.163 175.992 55.3203L164.336 75.7004C163.147 77.7796 160.935 79.0625 158.54 79.0625C156.145 79.0625 153.933 77.7796 152.744 75.7004L141.088 55.3203C140.998 55.163 140.831 55.066 140.65 55.066C140.354 55.066 140.122 55.3185 140.146 55.613L140.943 65.1698V89.3628C140.943 90.7424 139.824 91.8607 138.445 91.8607C137.065 91.8607 135.947 90.7424 135.947 89.3628V34.7473C135.947 32.995 137.367 31.5746 139.12 31.5746C140.248 31.5746 141.292 32.1744 141.861 33.1496L157.907 60.6803C158.038 60.9055 158.279 61.044 158.54 61.044C158.801 61.044 159.042 60.9055 159.173 60.6803L175.142 33.2823C175.759 32.2249 176.89 31.5746 178.114 31.5746ZM187.617 92.0923C186.501 92.0923 185.063 90.956 185.063 89.84V33.5953C185.063 32.4793 186.501 31.5746 187.617 31.5746C189.288 31.5746 190.329 32.4793 190.329 33.5953L190.248 89.84C190.248 90.956 189.771 92.0923 187.617 92.0923ZM129.73 31.5746C128.498 31.5746 127.099 32.5735 127.099 33.8058L127.099 89.461C127.099 90.6933 127.976 91.8607 129.788 91.8607C131.599 91.8607 132.439 90.8617 132.439 89.6294V33.8058C132.439 32.5735 130.962 31.5746 129.73 31.5746Z" fill="#004BD8"/>
</g>
<g filter="url(#filter1_i_345_2338)">
<path d="M0 146C0 145.448 0.447715 145 1 145H9.3434C9.7019 145 10.033 145.192 10.2111 145.503L22.9078 167.671C23.0068 167.844 23.1908 167.951 23.3901 167.951V167.951C23.5893 167.951 23.7733 167.844 23.8724 167.671L36.569 145.503C36.7472 145.192 37.0782 145 37.4367 145H45.7801C46.3324 145 46.7801 145.448 46.7801 146V190.951C46.7801 191.503 46.3324 191.951 45.7801 191.951H37.8571C37.3048 191.951 36.8571 191.503 36.8571 190.951V171.164L37.4673 163.712C37.4857 163.488 37.3083 163.295 37.0828 163.295V163.295C36.9434 163.295 36.8148 163.37 36.7465 163.492L26.6408 181.474C26.4637 181.789 26.1304 181.984 25.769 181.984H21.0111C20.6497 181.984 20.3164 181.789 20.1394 181.474L10.0336 163.492C9.96534 163.37 9.83677 163.295 9.69735 163.295V163.295C9.47188 163.295 9.29447 163.488 9.31287 163.712L9.92306 171.164V190.951C9.92306 191.503 9.47534 191.951 8.92306 191.951H0.999999C0.447715 191.951 0 191.503 0 190.951V146Z" fill="#0048D2"/>
<path d="M84.6493 183.675C85.1558 183.933 85.3481 184.562 85.0447 185.043C83.5724 187.375 81.7096 189.24 79.4565 190.639C76.9649 192.213 73.9365 193 70.371 193C67.9225 193 65.6458 192.585 63.5409 191.754C61.479 190.88 59.6748 189.678 58.1283 188.148C56.5819 186.617 55.3791 184.825 54.5199 182.77C53.6608 180.672 53.2312 178.377 53.2312 175.885C53.2312 173.568 53.6608 171.383 54.5199 169.328C55.3791 167.23 56.5604 165.415 58.0639 163.885C59.6103 162.311 61.393 161.066 63.412 160.148C65.474 159.23 67.7077 158.77 70.1133 158.77C72.7337 158.77 75.0319 159.208 77.0079 160.082C79.0269 160.956 80.7022 162.158 82.0339 163.689C83.3655 165.175 84.375 166.945 85.0623 169C85.7497 171.011 86.0933 173.175 86.0933 175.492C86.0933 175.842 86.0718 176.191 86.0289 176.541C86.0289 176.891 86.0074 177.197 85.9644 177.459V177.459C85.8987 177.927 85.5169 178.311 85.0444 178.311H63.889C63.2481 178.311 62.7684 178.909 62.9852 179.512C63.5215 181.004 64.3726 182.134 65.5384 182.902C66.9989 183.863 68.6313 184.344 70.4355 184.344C72.2397 184.344 73.7217 183.951 74.8815 183.164C75.8078 182.558 76.5812 181.822 77.2018 180.957C77.5144 180.521 78.0941 180.34 78.5722 180.583L84.6493 183.675ZM75.8308 171.623C76.4476 171.623 76.9092 171.066 76.6584 170.502C76.5738 170.312 76.4755 170.117 76.3635 169.918C76.0628 169.306 75.6118 168.76 75.0104 168.279C74.452 167.754 73.7432 167.339 72.884 167.033C72.0679 166.683 71.1443 166.508 70.1133 166.508C68.6098 166.508 67.2137 166.945 65.925 167.82C64.996 168.45 64.2455 169.285 63.6737 170.324C63.3394 170.931 63.822 171.623 64.5154 171.623H75.8308Z" fill="#0048D2"/>
<path d="M100.553 163.47C100.553 163.699 100.739 163.885 100.968 163.885V163.885C101.111 163.885 101.243 163.811 101.322 163.692C103.469 160.411 106.649 158.77 110.863 158.77C114.815 158.77 117.757 160.06 119.69 162.639C121.623 165.219 122.59 168.607 122.59 172.803V190.951C122.59 191.503 122.142 191.951 121.59 191.951H113.925C113.372 191.951 112.925 191.503 112.925 190.951V173.918C112.925 172.169 112.517 170.749 111.7 169.656C110.884 168.519 109.617 167.951 107.899 167.951C105.708 167.951 104.033 168.803 102.873 170.508C101.756 172.213 101.197 174.443 101.197 177.197V190.951C101.197 191.503 100.75 191.951 100.197 191.951H92.5321C91.9798 191.951 91.5321 191.503 91.5321 190.951V160.82C91.5321 160.267 91.9798 159.82 92.5321 159.82H99.553C100.105 159.82 100.553 160.267 100.553 160.82V163.47Z" fill="#0048D2"/>
<path d="M131.382 169.082C131.382 168.53 130.935 168.082 130.382 168.082H126.841C126.289 168.082 125.841 167.634 125.841 167.082V160.82C125.841 160.267 126.289 159.82 126.841 159.82H130.382C130.935 159.82 131.382 159.372 131.382 158.82V150.984C131.382 150.431 131.83 149.984 132.382 149.984H140.048C140.6 149.984 141.048 150.431 141.048 150.984V158.82C141.048 159.372 141.495 159.82 142.048 159.82H147.844C148.397 159.82 148.844 160.267 148.844 160.82V167.082C148.844 167.634 148.397 168.082 147.844 168.082H142.048C141.495 168.082 141.048 168.53 141.048 169.082V178.902C141.048 179.601 141.134 180.257 141.305 180.869C141.477 181.437 141.778 181.918 142.208 182.311C142.852 182.88 143.69 183.164 144.72 183.164C145.408 183.164 145.988 183.077 146.46 182.902V182.902C147.097 182.666 147.901 182.927 148.106 183.575L150.126 189.935C150.277 190.413 150.053 190.933 149.588 191.122C148.703 191.484 147.768 191.782 146.782 192.016C145.494 192.322 144.119 192.475 142.659 192.475C139.265 192.475 136.58 191.47 134.604 189.459C133.573 188.41 132.778 187.12 132.22 185.59C131.662 184.016 131.382 182.29 131.382 180.41V169.082Z" fill="#0048D2"/>
<path d="M170.167 158.77C172.616 158.77 174.871 159.208 176.933 160.082C179.038 160.913 180.842 162.093 182.346 163.623C183.892 165.109 185.074 166.902 185.89 169C186.749 171.098 187.178 173.393 187.178 175.885C187.178 178.377 186.749 180.672 185.89 182.77C185.074 184.869 183.892 186.683 182.346 188.213C180.842 189.699 179.038 190.88 176.933 191.754C174.871 192.585 172.616 193 170.167 193C167.719 193 165.442 192.585 163.337 191.754C161.275 190.88 159.471 189.699 157.925 188.213C156.421 186.683 155.24 184.869 154.381 182.77C153.565 180.672 153.157 178.377 153.157 175.885C153.157 173.393 153.565 171.098 154.381 169C155.24 166.902 156.421 165.109 157.925 163.623C159.471 162.093 161.275 160.913 163.337 160.082C165.442 159.208 167.719 158.77 170.167 158.77ZM170.167 183.82C171.155 183.82 172.079 183.645 172.938 183.295C173.84 182.902 174.635 182.377 175.322 181.721C176.01 181.022 176.547 180.191 176.933 179.23C177.32 178.224 177.513 177.109 177.513 175.885C177.513 174.661 177.32 173.568 176.933 172.607C176.547 171.645 176.01 170.814 175.322 170.115C174.635 169.415 173.84 168.891 172.938 168.541C172.079 168.148 171.155 167.951 170.167 167.951C169.179 167.951 168.234 168.148 167.332 168.541C166.473 168.891 165.7 169.415 165.013 170.115C164.325 170.814 163.788 171.645 163.402 172.607C163.015 173.568 162.822 174.661 162.822 175.885C162.822 177.109 163.015 178.224 163.402 179.23C163.788 180.191 164.325 181.022 165.013 181.721C165.7 182.377 166.473 182.902 167.332 183.295C168.234 183.645 169.179 183.82 170.167 183.82Z" fill="#0048D2"/>
<path d="M191.961 160.82C191.961 160.267 192.408 159.82 192.961 159.82H199.982C200.534 159.82 200.982 160.267 200.982 160.82V163.472C200.982 163.7 201.167 163.885 201.395 163.885V163.885C201.539 163.885 201.671 163.81 201.749 163.69C202.601 162.376 203.784 161.261 205.299 160.344C206.888 159.383 208.65 158.902 210.583 158.902C211.742 158.902 212.752 159.055 213.611 159.361C214.16 159.528 214.648 159.714 215.075 159.917C215.478 160.11 215.651 160.575 215.527 161.004L213.572 167.737C213.394 168.352 212.69 168.641 212.089 168.424C211.871 168.345 211.648 168.275 211.42 168.213C210.819 168.038 210.024 167.951 209.036 167.951C206.631 167.951 204.783 168.803 203.495 170.508C202.249 172.213 201.626 174.443 201.626 177.197V190.951C201.626 191.503 201.178 191.951 200.626 191.951H192.961C192.408 191.951 191.961 191.503 191.961 190.951V160.82Z" fill="#0048D2"/>
<path d="M247.248 183.675C247.755 183.933 247.947 184.562 247.643 185.043C246.171 187.375 244.308 189.24 242.055 190.639C239.564 192.213 236.535 193 232.97 193C230.521 193 228.245 192.585 226.14 191.754C224.078 190.88 222.274 189.678 220.727 188.148C219.181 186.617 217.978 184.825 217.119 182.77C216.26 180.672 215.83 178.377 215.83 175.885C215.83 173.568 216.26 171.383 217.119 169.328C217.978 167.23 219.159 165.415 220.663 163.885C222.209 162.311 223.992 161.066 226.011 160.148C228.073 159.23 230.307 158.77 232.712 158.77C235.333 158.77 237.631 159.208 239.607 160.082C241.626 160.956 243.301 162.158 244.633 163.689C245.964 165.175 246.974 166.945 247.661 169C248.348 171.011 248.692 173.175 248.692 175.492C248.692 175.842 248.671 176.191 248.628 176.541C248.628 176.891 248.606 177.197 248.563 177.459V177.459C248.498 177.927 248.116 178.311 247.643 178.311H226.488C225.847 178.311 225.367 178.909 225.584 179.512C226.12 181.004 226.971 182.134 228.137 182.902C229.598 183.863 231.23 184.344 233.034 184.344C234.838 184.344 236.32 183.951 237.48 183.164C238.407 182.558 239.18 181.822 239.801 180.957C240.113 180.521 240.693 180.34 241.171 180.583L247.248 183.675ZM238.43 171.623C239.046 171.623 239.508 171.066 239.257 170.502C239.173 170.312 239.074 170.117 238.962 169.918C238.662 169.306 238.211 168.76 237.609 168.279C237.051 167.754 236.342 167.339 235.483 167.033C234.667 166.683 233.743 166.508 232.712 166.508C231.209 166.508 229.813 166.945 228.524 167.82C227.595 168.45 226.844 169.285 226.273 170.324C225.938 170.931 226.421 171.623 227.114 171.623H238.43Z" fill="#0048D2"/>
<path d="M284.059 183.675C284.566 183.933 284.758 184.562 284.455 185.043C282.982 187.375 281.12 189.24 278.867 190.639C276.375 192.213 273.347 193 269.781 193C267.333 193 265.056 192.585 262.951 191.754C260.889 190.88 259.085 189.678 257.538 188.148C255.992 186.617 254.789 184.825 253.93 182.77C253.071 180.672 252.641 178.377 252.641 175.885C252.641 173.568 253.071 171.383 253.93 169.328C254.789 167.23 255.97 165.415 257.474 163.885C259.02 162.311 260.803 161.066 262.822 160.148C264.884 159.23 267.118 158.77 269.523 158.77C272.144 158.77 274.442 159.208 276.418 160.082C278.437 160.956 280.112 162.158 281.444 163.689C282.776 165.175 283.785 166.945 284.472 169C285.16 171.011 285.503 173.175 285.503 175.492C285.503 175.842 285.482 176.191 285.439 176.541C285.439 176.891 285.417 177.197 285.375 177.459V177.459C285.309 177.927 284.927 178.311 284.454 178.311H263.299C262.658 178.311 262.178 178.909 262.395 179.512C262.932 181.004 263.783 182.134 264.948 182.902C266.409 183.863 268.041 184.344 269.846 184.344C271.65 184.344 273.132 183.951 274.292 183.164C275.218 182.558 275.991 181.822 276.612 180.957C276.924 180.521 277.504 180.34 277.982 180.583L284.059 183.675ZM275.241 171.623C275.858 171.623 276.319 171.066 276.068 170.502C275.984 170.312 275.886 170.117 275.774 169.918C275.473 169.306 275.022 168.76 274.42 168.279C273.862 167.754 273.153 167.339 272.294 167.033C271.478 166.683 270.554 166.508 269.523 166.508C268.02 166.508 266.624 166.945 265.335 167.82C264.406 168.45 263.656 169.285 263.084 170.324C262.75 170.931 263.232 171.623 263.925 171.623H275.241Z" fill="#0048D2"/>
<path d="M299.963 163.47C299.963 163.699 300.149 163.885 300.378 163.885V163.885C300.521 163.885 300.653 163.811 300.732 163.692C302.879 160.411 306.059 158.77 310.273 158.77C314.225 158.77 317.167 160.06 319.1 162.639C321.033 165.219 322 168.607 322 172.803V190.951C322 191.503 321.552 191.951 321 191.951H313.335C312.782 191.951 312.335 191.503 312.335 190.951V173.918C312.335 172.169 311.927 170.749 311.11 169.656C310.294 168.519 309.027 167.951 307.309 167.951C305.118 167.951 303.443 168.803 302.283 170.508C301.166 172.213 300.607 174.443 300.607 177.197V190.951C300.607 191.503 300.16 191.951 299.607 191.951H291.942C291.39 191.951 290.942 191.503 290.942 190.951V160.82C290.942 160.267 291.39 159.82 291.942 159.82H298.963C299.515 159.82 299.963 160.267 299.963 160.82V163.47Z" fill="#0048D2"/>
</g>
<defs>
<filter id="filter0_i_345_2338" x="97.2783" y="0" width="121.035" height="125.035" filterUnits="userSpaceOnUse" color-interpolation-filters="sRGB">
<feFlood flood-opacity="0" result="BackgroundImageFix"/>
<feBlend mode="normal" in="SourceGraphic" in2="BackgroundImageFix" result="shape"/>
<feColorMatrix in="SourceAlpha" type="matrix" values="0 0 0 0 0 0 0 0 0 0 0 0 0 0 0 0 0 0 127 0" result="hardAlpha"/>
<feOffset dy="4"/>
<feGaussianBlur stdDeviation="2"/>
<feComposite in2="hardAlpha" operator="arithmetic" k2="-1" k3="1"/>
<feColorMatrix type="matrix" values="0 0 0 0 0 0 0 0 0 0 0 0 0 0 0 0 0 0 0.25 0"/>
<feBlend mode="normal" in2="shape" result="effect1_innerShadow_345_2338"/>
</filter>
<filter id="filter1_i_345_2338" x="0" y="145" width="322" height="52" filterUnits="userSpaceOnUse" color-interpolation-filters="sRGB">
<feFlood flood-opacity="0" result="BackgroundImageFix"/>
<feBlend mode="normal" in="SourceGraphic" in2="BackgroundImageFix" result="shape"/>
<feColorMatrix in="SourceAlpha" type="matrix" values="0 0 0 0 0 0 0 0 0 0 0 0 0 0 0 0 0 0 127 0" result="hardAlpha"/>
<feOffset dy="4"/>
<feGaussianBlur stdDeviation="2"/>
<feComposite in2="hardAlpha" operator="arithmetic" k2="-1" k3="1"/>
<feColorMatrix type="matrix" values="0 0 0 0 0 0 0 0 0 0 0 0 0 0 0 0 0 0 0.25 0"/>
<feBlend mode="normal" in2="shape" result="effect1_innerShadow_345_2338"/>
</filter>
</defs>
</svg>
